# xmcd
#
# Track frame offsets: 
#        150
#        22179
#        39756
#        53955
#        70229
#        87122
#        99340
#        120621
#        138334
#        152666
#
# Disc length: 2245 seconds
#
# Revision: 0
# Processed by: cddbd v1.5.2PL0 Copyright (c) Steve Scherf et al.
# Submitted via: ExactAudioCopy v0.95b4
#
DISCID=7a08c30a
DTITLE=Jackson Taylor and The Sinners - Crazy Again
DYEAR=2013
DGENRE=Red Dirt
TTITLE0=Makeup And Faded Blue Jeans
TTITLE1=Rain
TTITLE2=Jack's Drunk Again
TTITLE3=No Place To Go
TTITLE4=She's Not Your Girlfriend
TTITLE5=Crazy Again
TTITLE6=Letting Go
TTITLE7=Whiskey Drinking Song
TTITLE8=What A Way To Go
TTITLE9=This Ain't Goodbye
EXTD=
EXTT0=
EXTT1=
EXTT2=
EXTT3=
EXTT4=
EXTT5=
EXTT6=
EXTT7=
EXTT8=
EXTT9=
PLAYORDER=
